<svg width="128" height="128" viewBox="0 0 128 128" fill="none" xmlns="http://www.w3.org/2000/svg">
<rect width="128" height="128" fill="white"/>
<path d="M14.48 86.776C14.384 86.84 14.184 86.92 13.88 87.016C13.592 87.096 13.096 87.176 12.392 87.256C12.184 87.272 11.888 87.288 11.504 87.304C11.12 87.32 10.704 87.336 10.256 87.352C9.824 87.368 9.424 87.376 9.056 87.376C8.704 87.36 8.456 87.336 8.312 87.304C8.312 87.304 8.272 87.344 8.192 87.424C8.128 87.504 8.096 87.608 8.096 87.736C7.984 87.928 7.848 88.216 7.688 88.6C7.528 88.968 7.352 89.376 7.16 89.824C6.984 90.272 6.816 90.72 6.656 91.168C6.496 91.6 6.36 91.984 6.248 92.32C6.152 92.64 6.104 92.864 6.104 92.992C5.96 93.376 5.872 93.704 5.84 93.976C5.808 94.248 5.752 94.408 5.672 94.456C5.624 94.696 5.472 94.816 5.216 94.816C4.976 94.816 4.792 94.744 4.664 94.6C4.312 94.424 4.072 94.2 3.944 93.928C3.816 93.64 3.808 93.32 3.92 92.968C3.968 92.76 4.048 92.456 4.16 92.056C4.288 91.64 4.424 91.184 4.568 90.688C4.728 90.192 4.888 89.712 5.048 89.248C5.224 88.768 5.392 88.376 5.552 88.072C5.728 87.768 5.84 87.496 5.888 87.256C5.936 87 6 86.768 6.08 86.56C6.064 86.384 6.064 86.272 6.08 86.224C6.096 86.16 6.16 86.056 6.272 85.912C6.352 85.848 6.448 85.736 6.56 85.576C6.688 85.4 6.832 85.136 6.992 84.784C7.04 84.624 7.112 84.408 7.208 84.136C7.32 83.848 7.424 83.56 7.52 83.272C7.616 82.968 7.704 82.712 7.784 82.504C7.864 82.296 7.904 82.184 7.904 82.168C7.936 82.104 7.984 81.984 8.048 81.808C8.112 81.616 8.16 81.464 8.192 81.352C8.256 81.128 8.304 80.944 8.336 80.8C8.384 80.656 8.376 80.584 8.312 80.584C8.184 80.616 7.928 80.64 7.544 80.656C7.352 80.688 7.208 80.712 7.112 80.728C7.032 80.728 6.96 80.736 6.896 80.752C6.736 80.768 6.592 80.752 6.464 80.704C6.336 80.656 6.272 80.56 6.272 80.416C6.304 80.16 6.392 79.896 6.536 79.624C6.696 79.352 6.896 79.208 7.136 79.192C7.248 79.16 7.368 79.136 7.496 79.12C7.64 79.088 7.832 79.04 8.072 78.976C8.376 78.912 8.64 78.896 8.864 78.928C9.104 78.944 9.272 78.968 9.368 79C9.448 78.952 9.512 78.904 9.56 78.856C9.624 78.792 9.664 78.728 9.68 78.664C9.76 78.376 9.904 78.16 10.112 78.016C10.32 77.856 10.536 77.776 10.76 77.776C11 77.76 11.192 77.824 11.336 77.968C11.48 78.096 11.52 78.312 11.456 78.616C11.472 78.664 11.488 78.704 11.504 78.736C11.536 78.768 11.656 78.768 11.864 78.736C12.088 78.688 12.472 78.608 13.016 78.496C13.304 78.464 13.664 78.432 14.096 78.4C14.544 78.368 14.896 78.392 15.152 78.472C15.424 78.424 15.664 78.408 15.872 78.424C16.096 78.424 16.248 78.392 16.328 78.328C16.664 78.392 16.904 78.44 17.048 78.472C17.208 78.488 17.336 78.536 17.432 78.616C17.496 78.68 17.52 78.744 17.504 78.808C17.488 78.856 17.48 78.88 17.48 78.88C17.416 78.848 17.408 78.848 17.456 78.88C17.504 78.896 17.568 78.936 17.648 79C17.76 79.048 17.816 79.152 17.816 79.312C17.832 79.456 17.824 79.608 17.792 79.768C17.776 79.912 17.76 80.008 17.744 80.056C17.728 80.2 17.648 80.288 17.504 80.32C17.36 80.336 17 80.336 16.424 80.32C15.736 80.224 15.096 80.192 14.504 80.224C13.928 80.24 13.2 80.312 12.32 80.44C11.968 80.456 11.664 80.504 11.408 80.584C11.168 80.648 11.048 80.68 11.048 80.68C10.984 80.68 10.872 80.792 10.712 81.016C10.552 81.224 10.4 81.536 10.256 81.952C10.192 82.064 10.08 82.296 9.92 82.648C9.776 83 9.624 83.384 9.464 83.8C9.304 84.2 9.16 84.56 9.032 84.88C8.904 85.184 8.824 85.352 8.792 85.384C9.016 85.448 9.36 85.48 9.824 85.48C10.304 85.48 10.832 85.464 11.408 85.432C11.984 85.384 12.528 85.336 13.04 85.288C13.28 85.24 13.528 85.2 13.784 85.168C14.04 85.136 14.216 85.128 14.312 85.144C14.504 85.16 14.648 85.288 14.744 85.528C14.84 85.752 14.872 85.992 14.84 86.248C14.808 86.488 14.688 86.664 14.48 86.776ZM15.4291 93.496C15.3651 93.368 15.2211 93.24 14.9971 93.112C14.7891 92.984 14.6851 92.888 14.6851 92.824C14.6851 92.76 14.6451 92.664 14.5651 92.536C14.5011 92.392 14.4371 92.288 14.3731 92.224C14.2931 92.128 14.3171 91.896 14.4451 91.528C14.5731 91.144 14.7651 90.68 15.0211 90.136C15.2771 89.592 15.5571 89.04 15.8611 88.48C15.9891 88.352 16.1171 88.184 16.2451 87.976C16.3731 87.768 16.4691 87.632 16.5331 87.568C16.5331 87.504 16.5571 87.448 16.6051 87.4C16.6531 87.336 16.7091 87.304 16.7731 87.304L16.9651 86.92C16.9971 86.856 17.0931 86.728 17.2531 86.536C17.4291 86.344 17.6371 86.136 17.8771 85.912C18.1171 85.672 18.3571 85.448 18.5971 85.24C18.8531 85.032 19.0611 84.88 19.2211 84.784C19.5571 84.56 19.9011 84.456 20.2531 84.472C20.6211 84.488 20.9331 84.6 21.1891 84.808C21.2371 84.856 21.3411 84.952 21.5011 85.096C21.6771 85.24 21.8691 85.4 22.0771 85.576C22.3011 85.752 22.4931 85.912 22.6531 86.056L23.5411 86.848L23.1331 88.048C22.9251 88.688 22.8691 89.248 22.9651 89.728C23.0611 90.208 23.2131 90.624 23.4211 90.976C23.5011 91.152 23.6051 91.288 23.7331 91.384C23.8771 91.48 24.0611 91.544 24.2851 91.576C24.4131 91.592 24.5331 91.64 24.6451 91.72C24.7571 91.8 24.8131 91.928 24.8131 92.104C24.8131 92.488 24.7411 92.768 24.5971 92.944C24.4691 93.104 24.3251 93.2 24.1651 93.232C23.6371 93.296 23.1331 93.24 22.6531 93.064C22.1731 92.888 21.7411 92.432 21.3571 91.696C21.2931 91.6 21.2051 91.424 21.0931 91.168C20.9971 90.896 20.9411 90.72 20.9251 90.64C20.8611 90.72 20.7731 90.824 20.6611 90.952C20.5651 91.064 20.4691 91.168 20.3731 91.264C19.2371 92.416 18.2611 93.168 17.4451 93.52C16.6451 93.856 15.9731 93.848 15.4291 93.496ZM16.7491 91.504C16.8611 91.52 17.0371 91.464 17.2771 91.336C17.5171 91.192 17.8371 90.96 18.2371 90.64C18.7811 90.176 19.2291 89.792 19.5811 89.488C19.9331 89.184 20.2771 88.792 20.6131 88.312L21.1411 87.448C20.9811 87.08 20.8371 86.84 20.7091 86.728C20.5811 86.616 20.4531 86.56 20.3251 86.56C20.1171 86.56 19.8691 86.696 19.5811 86.968C19.2931 87.224 18.9651 87.608 18.5971 88.12C18.2451 88.616 17.8451 89.24 17.3971 89.992C17.1891 90.344 17.0291 90.688 16.9171 91.024C16.8051 91.344 16.7491 91.504 16.7491 91.504ZM26.8361 94.144C26.2921 93.92 25.8921 93.688 25.6361 93.448C25.3961 93.192 25.3001 92.968 25.3481 92.776C25.3801 92.68 25.4361 92.592 25.5161 92.512C25.5961 92.432 25.7721 92.4 26.0441 92.416C26.3321 92.416 26.7721 92.488 27.3641 92.632C27.5401 92.632 27.7161 92.624 27.8921 92.608C28.0681 92.592 28.2281 92.568 28.3721 92.536C28.5321 92.504 28.6601 92.464 28.7561 92.416C28.8361 92.384 28.8601 92.344 28.8281 92.296C28.7961 92.232 28.7401 92.168 28.6601 92.104C28.5961 92.024 28.5241 91.976 28.4441 91.96C28.3641 91.928 28.2921 91.912 28.2281 91.912C28.1961 91.832 28.1241 91.752 28.0121 91.672C27.9161 91.592 27.7961 91.504 27.6521 91.408C27.3001 91.12 26.9801 90.864 26.6921 90.64C26.4041 90.416 26.2921 90.248 26.3561 90.136C26.3561 90.072 26.3561 90.04 26.3561 90.04C26.3561 90.024 26.3561 90.016 26.3561 90.016C26.2441 90.016 26.1401 89.864 26.0441 89.56C25.9481 89.24 25.9001 88.952 25.9001 88.696C25.9001 88.376 25.9641 88.056 26.0921 87.736C26.2361 87.416 26.4121 87.112 26.6201 86.824C26.8441 86.536 27.0681 86.28 27.2921 86.056C27.5961 85.768 27.9161 85.488 28.2521 85.216C28.6041 84.928 28.9801 84.672 29.3801 84.448C29.7961 84.224 30.2521 84.048 30.7481 83.92C30.9721 83.872 31.2281 83.848 31.5161 83.848C31.8041 83.848 32.0121 83.888 32.1401 83.968C32.2681 83.888 32.4281 83.912 32.6201 84.04C32.8121 84.152 33.0041 84.312 33.1961 84.52C33.3881 84.728 33.5321 84.936 33.6281 85.144C33.6281 85.336 33.6201 85.576 33.6041 85.864C33.6041 86.136 33.5881 86.376 33.5561 86.584C33.5241 86.792 33.4521 86.896 33.3401 86.896C33.3401 86.896 33.3161 86.904 33.2681 86.92C33.2361 86.92 33.2201 86.96 33.2201 87.04C33.2201 87.2 33.1001 87.384 32.8601 87.592C32.5561 87.8 32.2681 87.968 31.9961 88.096C31.7241 88.224 31.5161 88.232 31.3721 88.12C31.2761 88.056 31.1881 87.992 31.1081 87.928C31.0281 87.864 30.9561 87.784 30.8921 87.688C30.8921 87.688 30.8681 87.656 30.8201 87.592C30.7881 87.512 30.7721 87.44 30.7721 87.376C30.7721 87.312 30.7961 87.256 30.8441 87.208C30.8921 87.144 30.9161 87.112 30.9161 87.112C31.1401 86.904 31.3081 86.712 31.4201 86.536C31.5481 86.36 31.6361 86.208 31.6841 86.08C31.7321 85.936 31.7561 85.824 31.7561 85.744C31.7561 85.648 31.7321 85.592 31.6841 85.576C31.6521 85.544 31.5721 85.528 31.4441 85.528C31.3641 85.528 31.1881 85.592 30.9161 85.72C30.6601 85.848 30.3881 86.008 30.1001 86.2C29.8121 86.376 29.5881 86.536 29.4281 86.68C29.3641 86.792 29.3161 86.864 29.2841 86.896C29.2681 86.928 29.2281 86.944 29.1641 86.944C29.1641 86.88 29.1241 86.888 29.0441 86.968C28.9641 87.048 28.8681 87.16 28.7561 87.304C28.6441 87.448 28.5321 87.6 28.4201 87.76C28.3081 87.92 28.2201 88.048 28.1561 88.144C28.1401 88.288 28.1001 88.424 28.0361 88.552C27.9881 88.664 27.9721 88.784 27.9881 88.912C28.0041 89.072 28.0841 89.224 28.2281 89.368C28.3721 89.512 28.5801 89.696 28.8521 89.92C29.4121 90.336 29.8281 90.664 30.1001 90.904C30.3881 91.144 30.5881 91.336 30.7001 91.48C30.8121 91.624 30.8841 91.768 30.9161 91.912C31.1881 92.408 31.2201 92.84 31.0121 93.208C30.8041 93.56 30.4841 93.832 30.0521 94.024C29.8921 94.104 29.6121 94.176 29.2121 94.24C28.8121 94.32 28.3881 94.352 27.9401 94.336C27.5081 94.336 27.1401 94.272 26.8361 94.144ZM41.6587 93.616C41.2587 93.808 40.8667 93.88 40.4827 93.832C40.1147 93.768 39.8027 93.568 39.5467 93.232C39.3067 92.88 39.1867 92.368 39.1867 91.696C39.1867 91.52 39.1947 91.312 39.2107 91.072C39.2427 90.816 39.2907 90.552 39.3547 90.28C39.4187 89.992 39.4987 89.704 39.5947 89.416C39.6427 89.272 39.7067 89.128 39.7867 88.984C39.8827 88.84 39.8987 88.768 39.8347 88.768C39.7707 88.768 39.6907 88.808 39.5947 88.888C39.5147 88.968 39.4507 89.032 39.4027 89.08C39.0027 89.432 38.6347 89.8 38.2987 90.184C37.9787 90.552 37.6907 90.92 37.4347 91.288C37.1947 91.64 37.0027 91.968 36.8587 92.272C36.7307 92.576 36.6667 92.832 36.6667 93.04C36.6667 93.28 36.5467 93.448 36.3067 93.544C36.0667 93.64 35.8587 93.632 35.6827 93.52C35.3787 93.344 35.0987 93.072 34.8427 92.704C34.6027 92.336 34.5067 91.856 34.5547 91.264C34.6027 90.512 34.6667 89.84 34.7467 89.248C34.8267 88.656 34.9547 88.016 35.1307 87.328C35.3227 86.624 35.5707 85.768 35.8747 84.76C36.0827 84.2 36.2747 83.672 36.4507 83.176C36.6267 82.664 36.7787 82.232 36.9067 81.88C37.0507 81.528 37.1387 81.312 37.1707 81.232C37.2507 81.152 37.3547 80.96 37.4827 80.656C37.6107 80.336 37.7227 80.016 37.8187 79.696C37.9307 79.376 37.9867 79.184 37.9867 79.12C37.9867 78.992 38.0107 78.88 38.0587 78.784C38.1227 78.688 38.1787 78.6 38.2267 78.52C38.3227 78.296 38.4027 78.144 38.4667 78.064C38.5467 77.968 38.6187 77.92 38.6827 77.92C38.7627 77.92 38.8907 77.96 39.0667 78.04C39.2587 78.12 39.4347 78.224 39.5947 78.352C39.7707 78.464 39.8747 78.584 39.9067 78.712C40.0187 78.936 40.0827 79.168 40.0987 79.408C40.1147 79.632 40.0587 79.912 39.9307 80.248C39.8027 80.584 39.5787 81.048 39.2587 81.64C39.0027 82.136 38.7707 82.648 38.5627 83.176C38.3547 83.704 38.1547 84.256 37.9627 84.832C37.8827 85.072 37.7787 85.392 37.6507 85.792C37.5227 86.176 37.3947 86.576 37.2667 86.992C37.1547 87.392 37.0587 87.752 36.9787 88.072C36.8987 88.392 36.8587 88.6 36.8587 88.696C36.8587 88.808 36.9227 88.864 37.0507 88.864C37.1787 88.848 37.3067 88.752 37.4347 88.576C37.4987 88.448 37.6027 88.328 37.7467 88.216C37.8907 88.088 38.0187 87.96 38.1307 87.832C38.2587 87.672 38.4107 87.488 38.5867 87.28C38.7787 87.056 38.9787 86.848 39.1867 86.656C39.4107 86.448 39.6107 86.28 39.7867 86.152C39.9787 86.024 40.1387 85.96 40.2667 85.96C40.5707 85.96 40.8267 86.048 41.0347 86.224C41.2427 86.4 41.4187 86.672 41.5627 87.04C41.6107 87.088 41.6587 87.152 41.7067 87.232C41.7547 87.296 41.7867 87.344 41.8027 87.376C41.8827 87.44 41.9227 87.696 41.9227 88.144C41.9227 88.576 41.7947 89.176 41.5387 89.944C41.3947 90.536 41.3067 90.976 41.2747 91.264C41.2587 91.552 41.3147 91.696 41.4427 91.696C41.4427 91.696 41.5227 91.648 41.6827 91.552C41.8587 91.456 42.0427 91.352 42.2347 91.24C42.6987 90.936 43.0347 90.84 43.2427 90.952C43.4507 91.064 43.5547 91.208 43.5547 91.384C43.5547 91.528 43.4987 91.696 43.3867 91.888C43.2907 92.08 43.2427 92.208 43.2427 92.272C43.2427 92.272 43.2427 92.28 43.2427 92.296C43.2427 92.296 43.2427 92.328 43.2427 92.392C43.2427 92.424 43.1387 92.536 42.9307 92.728C42.7227 92.92 42.4907 93.112 42.2347 93.304C41.9947 93.48 41.8027 93.584 41.6587 93.616ZM46.7681 93.976C46.3841 93.976 46.0481 93.776 45.7601 93.376C45.4881 92.96 45.3201 92.464 45.2561 91.888C45.2721 91.76 45.2881 91.576 45.3041 91.336C45.3361 91.096 45.3681 90.848 45.4001 90.592C45.4641 90.288 45.5521 89.896 45.6641 89.416C45.7761 88.936 45.8961 88.456 46.0241 87.976C46.1521 87.48 46.2641 87.056 46.3601 86.704C46.4561 86.336 46.5121 86.12 46.5281 86.056C46.6241 85.832 46.8401 85.776 47.1761 85.888C47.5121 86 47.8001 86.24 48.0401 86.608C48.1361 86.736 48.1921 86.888 48.2081 87.064C48.2401 87.24 48.2161 87.496 48.1361 87.832C48.0721 88.168 47.9441 88.664 47.7521 89.32C47.5761 89.96 47.4401 90.48 47.3441 90.88C47.2641 91.264 47.2321 91.672 47.2481 92.104C47.1841 92.84 47.1201 93.344 47.0561 93.616C46.9921 93.872 46.8961 93.992 46.7681 93.976ZM48.9761 84.016C48.9121 84.064 48.8481 84.088 48.7841 84.088C48.7361 84.072 48.6481 84.024 48.5201 83.944C48.4081 83.928 48.2641 83.856 48.0881 83.728C47.9281 83.584 47.7841 83.44 47.6561 83.296C47.5441 83.152 47.4881 83.064 47.4881 83.032C47.4721 82.872 47.4801 82.616 47.5121 82.264C47.5601 81.912 47.6481 81.584 47.7761 81.28C47.9201 80.96 48.1121 80.792 48.3521 80.776C48.4161 80.776 48.5521 80.808 48.7601 80.872C48.9841 80.936 49.2161 81.016 49.4561 81.112C49.5841 81.352 49.7041 81.664 49.8161 82.048C49.9281 82.432 49.9361 82.808 49.8401 83.176C49.7601 83.528 49.4721 83.808 48.9761 84.016ZM52.127 94.216C51.919 94.232 51.751 94.208 51.623 94.144C51.495 94.096 51.335 94.016 51.143 93.904C50.791 93.632 50.495 93.296 50.255 92.896C50.031 92.496 49.927 92.16 49.943 91.888C49.975 91.744 49.975 91.616 49.943 91.504C49.927 91.392 49.919 91.336 49.919 91.336C49.823 91.256 49.791 91.208 49.823 91.192C49.855 91.16 49.879 91.112 49.895 91.048C50.023 91.016 50.039 90.928 49.943 90.784C49.895 90.656 49.919 90.368 50.015 89.92C50.127 89.456 50.271 89.024 50.447 88.624C50.527 88.448 50.639 88.216 50.783 87.928C50.943 87.64 51.119 87.352 51.311 87.064C51.503 86.76 51.679 86.52 51.839 86.344C52.191 85.944 52.503 85.616 52.775 85.36C53.063 85.104 53.383 84.912 53.735 84.784C54.055 84.656 54.375 84.6 54.695 84.616C55.031 84.632 55.327 84.744 55.583 84.952C55.967 85.064 56.311 85.24 56.615 85.48C56.919 85.704 57.127 86.024 57.239 86.44C57.367 86.904 57.407 87.456 57.359 88.096C57.327 88.72 57.055 89.528 56.543 90.52C56.239 91.144 55.935 91.648 55.631 92.032C55.343 92.416 54.991 92.784 54.575 93.136C54.271 93.392 53.879 93.616 53.399 93.808C52.919 94 52.495 94.136 52.127 94.216ZM54.215 90.592C54.423 90.304 54.583 90.024 54.695 89.752C54.823 89.48 54.943 89.104 55.055 88.624C55.103 88.448 55.127 88.232 55.127 87.976C55.143 87.72 55.135 87.488 55.103 87.28C55.087 87.056 55.031 86.936 54.935 86.92C54.727 86.84 54.511 86.84 54.287 86.92C54.079 86.984 53.831 87.176 53.543 87.496C53.287 87.784 53.079 88.056 52.919 88.312C52.775 88.552 52.639 88.848 52.511 89.2C52.399 89.536 52.271 89.976 52.127 90.52C51.999 91.048 51.991 91.472 52.103 91.792C52.231 92.112 52.471 92.2 52.823 92.056C53.175 91.912 53.639 91.424 54.215 90.592ZM59.7183 93.184C59.6543 93.184 59.5023 93.128 59.2623 93.016C59.0223 92.888 58.8703 92.792 58.8063 92.728C58.6943 92.6 58.6223 92.464 58.5903 92.32C58.5583 92.16 58.5423 91.856 58.5423 91.408C58.5423 90.896 58.6463 90.32 58.8543 89.68C59.0623 89.024 59.4143 88.152 59.9103 87.064L60.8943 85.072C60.9743 84.96 61.0463 84.864 61.1103 84.784C61.1743 84.688 61.2463 84.6 61.3263 84.52C61.3583 84.52 61.3983 84.52 61.4463 84.52C61.5103 84.52 61.5583 84.528 61.5903 84.544C61.7343 84.56 61.9583 84.648 62.2623 84.808C62.5823 84.968 62.7743 85.208 62.8383 85.528C62.8383 85.736 62.8063 85.984 62.7423 86.272C62.6783 86.544 62.4863 86.904 62.1663 87.352C62.0383 87.512 61.9103 87.744 61.7823 88.048C61.6703 88.352 61.5663 88.64 61.4703 88.912C61.4543 88.944 61.4063 89.024 61.3263 89.152C61.2623 89.264 61.1983 89.384 61.1343 89.512C61.0703 89.624 61.0383 89.696 61.0383 89.728L60.9423 89.944L61.9743 88.936C62.6943 88.216 63.3023 87.704 63.7983 87.4C64.2943 87.096 64.7103 86.968 65.0463 87.016C65.3983 87.064 65.6783 87.264 65.8863 87.616C65.9983 87.776 66.0783 87.952 66.1263 88.144C66.1743 88.32 66.2063 88.528 66.2223 88.768C66.2383 89.008 66.2303 89.312 66.1983 89.68V91.048C66.5023 90.968 66.7343 90.904 66.8943 90.856C67.0543 90.792 67.2143 90.736 67.3743 90.688C67.5023 90.656 67.6303 90.624 67.7583 90.592C67.9023 90.56 68.0783 90.536 68.2863 90.52C68.2703 90.728 68.1823 90.984 68.0223 91.288C67.8623 91.592 67.6623 91.896 67.4223 92.2C67.1983 92.504 66.9503 92.76 66.6783 92.968C66.4223 93.176 66.1823 93.28 65.9583 93.28C65.7503 93.28 65.5103 93.216 65.2383 93.088C64.9663 92.944 64.7343 92.672 64.5423 92.272C64.4783 92.064 64.4143 91.824 64.3503 91.552C64.2863 91.28 64.2543 90.992 64.2543 90.688V89.632C64.2543 89.536 64.2463 89.472 64.2303 89.44C64.2303 89.392 64.2223 89.368 64.2063 89.368C64.1423 89.368 63.9343 89.536 63.5823 89.872C63.2463 90.208 62.9023 90.56 62.5503 90.928C61.8143 91.696 61.1983 92.264 60.7023 92.632C60.2223 93 59.8943 93.184 59.7183 93.184ZM79.2824 95.56C78.9944 95.48 78.7624 95.408 78.5864 95.344C78.4104 95.296 78.3224 95.272 78.3224 95.272C78.3544 95.192 78.3384 95.12 78.2744 95.056C78.2264 94.992 78.1144 94.952 77.9384 94.936C77.6984 94.776 77.4504 94.552 77.1944 94.264C76.9384 93.976 76.7144 93.68 76.5224 93.376C76.3304 93.072 76.2024 92.848 76.1384 92.704C76.0264 92.464 76.0344 92.32 76.1624 92.272C76.2904 92.208 76.4424 92.136 76.6184 92.056C76.7944 91.928 76.9784 91.832 77.1704 91.768C77.3784 91.704 77.5464 91.808 77.6744 92.08C77.8824 92.448 78.2024 92.76 78.6344 93.016C79.0824 93.272 79.5864 93.424 80.1464 93.472C80.7224 93.52 81.2984 93.424 81.8744 93.184C82.2584 93.008 82.4664 92.768 82.4984 92.464C82.5304 92.144 82.4104 91.776 82.1384 91.36C82.0904 91.232 82.0184 91.128 81.9224 91.048C81.8424 90.968 81.7144 90.864 81.5384 90.736C81.3784 90.608 81.1464 90.4 80.8424 90.112C80.6024 90 80.3784 89.896 80.1704 89.8C79.9784 89.704 79.7704 89.6 79.5464 89.488C79.2904 89.36 79.0024 89.184 78.6824 88.96C78.3624 88.72 78.0664 88.464 77.7944 88.192C77.5224 87.904 77.3144 87.632 77.1704 87.376C76.9144 87.136 76.7544 86.808 76.6904 86.392C76.6264 85.96 76.6344 85.504 76.7144 85.024C76.8104 84.544 76.9624 84.112 77.1704 83.728C77.2664 83.504 77.4424 83.216 77.6984 82.864C77.9544 82.496 78.2424 82.12 78.5624 81.736C78.8824 81.352 79.1864 81.008 79.4744 80.704C79.7784 80.384 80.0184 80.168 80.1944 80.056C80.3224 79.928 80.4584 79.8 80.6024 79.672C80.7464 79.528 80.8184 79.456 80.8184 79.456C80.8344 79.376 80.8584 79.336 80.8904 79.336C80.9384 79.336 80.9624 79.336 80.9624 79.336C81.0424 79.288 81.2184 79.208 81.4904 79.096C81.7624 78.984 82.0584 78.776 82.3784 78.472C83.4504 77.96 84.3624 77.616 85.1144 77.44C85.8664 77.248 86.4584 77.152 86.8904 77.152C87.2904 77.168 87.6824 77.28 88.0664 77.488C88.4504 77.68 88.7784 77.928 89.0504 78.232C89.3384 78.536 89.5064 78.88 89.5544 79.264C89.6664 79.648 89.6104 80.112 89.3864 80.656C89.1784 81.184 88.8824 81.688 88.4984 82.168C88.1304 82.632 87.7464 82.976 87.3464 83.2C86.8984 83.392 86.5144 83.416 86.1944 83.272C85.8904 83.128 85.7464 82.904 85.7624 82.6C85.7624 82.472 85.8024 82.32 85.8824 82.144C85.9784 81.968 86.2264 81.656 86.6264 81.208C87.1384 80.456 87.4104 79.92 87.4424 79.6C87.4744 79.28 87.3304 79.096 87.0104 79.048C86.9144 79.016 86.7304 79.024 86.4584 79.072C86.1864 79.12 85.8904 79.184 85.5704 79.264C85.2664 79.328 84.9944 79.4 84.7544 79.48C84.5304 79.56 84.4184 79.616 84.4184 79.648C84.4184 79.648 84.4184 79.672 84.4184 79.72C84.4184 79.768 84.3864 79.784 84.3224 79.768C84.2904 79.768 84.1784 79.824 83.9864 79.936C83.8104 80.032 83.5944 80.16 83.3384 80.32C83.0824 80.48 82.8264 80.648 82.5704 80.824C82.3304 80.984 82.1224 81.128 81.9464 81.256C81.7704 81.384 81.6744 81.464 81.6584 81.496C81.6264 81.672 81.4424 81.832 81.1064 81.976C80.7864 82.168 80.5064 82.44 80.2664 82.792C80.0264 83.144 79.7464 83.592 79.4264 84.136C79.1544 84.504 78.9624 84.904 78.8504 85.336C78.7384 85.752 78.7384 86.088 78.8504 86.344C78.9304 86.6 79.1464 86.856 79.4984 87.112C79.8664 87.352 80.3624 87.656 80.9864 88.024C81.5304 88.328 82.0424 88.648 82.5224 88.984C83.0024 89.32 83.4104 89.648 83.7464 89.968C84.0824 90.272 84.2984 90.528 84.3944 90.736C84.5864 91.008 84.6984 91.32 84.7304 91.672C84.7784 92.024 84.7784 92.368 84.7304 92.704C84.6984 93.024 84.6504 93.288 84.5864 93.496C84.4744 93.752 84.2984 94.024 84.0584 94.312C83.8344 94.6 83.6264 94.736 83.4344 94.72C83.2584 94.768 83.1224 94.824 83.0264 94.888C82.9464 94.952 82.8504 95.008 82.7384 95.056C82.6264 95.12 82.3624 95.192 81.9464 95.272C81.5304 95.368 81.0744 95.44 80.5784 95.488C80.0824 95.552 79.6504 95.576 79.2824 95.56ZM88.5789 93.832C88.3709 93.832 88.2029 93.792 88.0749 93.712C87.9629 93.632 87.8189 93.52 87.6429 93.376C87.3389 93.056 87.0909 92.712 86.8989 92.344C86.7229 91.976 86.6589 91.656 86.7069 91.384C86.7549 91.256 86.7709 91.136 86.7549 91.024C86.7549 90.896 86.7549 90.832 86.7549 90.832C86.6749 90.752 86.6509 90.704 86.6829 90.688C86.7149 90.656 86.7469 90.608 86.7789 90.544C86.8749 90.544 86.9069 90.456 86.8749 90.28C86.8429 90.152 86.8909 89.88 87.0189 89.464C87.1629 89.032 87.3549 88.624 87.5949 88.24C87.6909 88.08 87.8349 87.872 88.0269 87.616C88.2189 87.344 88.4269 87.08 88.6509 86.824C88.8909 86.552 89.1069 86.336 89.2989 86.176C89.6989 85.84 90.0669 85.568 90.4029 85.36C90.7549 85.152 91.1069 85.008 91.4589 84.928C91.8109 84.848 92.1709 84.808 92.5389 84.808C92.9229 84.808 93.2349 84.936 93.4749 85.192C93.8429 85.352 94.0989 85.568 94.2429 85.84C94.4029 86.112 94.5069 86.464 94.5549 86.896C94.6029 87.376 94.5549 87.968 94.4109 88.672C94.2669 89.36 93.8749 90.16 93.2349 91.072C92.8349 91.648 92.4429 92.096 92.0589 92.416C91.6749 92.736 91.2509 93.032 90.7869 93.304C90.4509 93.528 90.0909 93.664 89.7069 93.712C89.3229 93.76 88.9469 93.8 88.5789 93.832ZM91.0269 90.904C91.3789 90.6 91.6269 90.264 91.7709 89.896C91.9309 89.528 92.0989 89.096 92.2749 88.6C92.3389 88.504 92.3789 88.344 92.3949 88.12C92.4269 87.896 92.4349 87.68 92.4189 87.472C92.4029 87.248 92.3469 87.12 92.2509 87.088C92.1069 86.976 91.9629 86.952 91.8189 87.016C91.6749 87.064 91.4909 87.168 91.2669 87.328C90.7869 87.728 90.3389 88.192 89.9229 88.72C89.5229 89.232 89.2429 89.864 89.0829 90.616C89.0349 91.016 89.0749 91.32 89.2029 91.528C89.3469 91.72 89.5709 91.776 89.8749 91.696C90.1949 91.6 90.5789 91.336 91.0269 90.904ZM98.5462 94.096C98.0822 94.176 97.6182 94.136 97.1542 93.976C96.7062 93.816 96.3302 93.56 96.0262 93.208C95.7382 92.84 95.5942 92.4 95.5942 91.888C95.5462 91.408 95.5862 90.84 95.7142 90.184C95.8582 89.512 96.0662 88.84 96.3382 88.168C96.6262 87.496 96.9542 86.928 97.3222 86.464C97.6422 86.08 97.9622 85.728 98.2822 85.408C98.6022 85.088 98.8902 84.872 99.1462 84.76C99.3702 84.664 99.6422 84.592 99.9622 84.544C100.298 84.48 100.53 84.448 100.658 84.448C100.914 84.512 101.194 84.616 101.498 84.76C101.818 84.904 101.978 85.072 101.978 85.264C101.978 85.264 101.994 85.288 102.026 85.336C102.074 85.368 102.098 85.384 102.098 85.384C102.194 85.384 102.298 85.504 102.41 85.744C102.538 85.968 102.634 86.232 102.698 86.536C102.762 86.824 102.746 87.056 102.65 87.232C102.586 87.536 102.458 87.832 102.266 88.12C102.09 88.408 101.938 88.552 101.81 88.552C101.746 88.552 101.682 88.56 101.618 88.576C101.57 88.576 101.546 88.616 101.546 88.696C101.546 88.776 101.458 88.816 101.282 88.816C101.122 88.816 100.954 88.784 100.778 88.72C100.602 88.656 100.49 88.56 100.442 88.432C100.442 88.352 100.458 88.248 100.49 88.12C100.522 87.992 100.57 87.776 100.634 87.472C100.73 87.024 100.738 86.728 100.658 86.584C100.578 86.424 100.378 86.408 100.058 86.536C99.6582 86.76 99.3302 87.024 99.0742 87.328C98.8182 87.616 98.5862 88.024 98.3782 88.552C98.1862 89.08 97.9702 89.816 97.7302 90.76C97.6342 91.128 97.6182 91.416 97.6822 91.624C97.7622 91.832 97.8262 91.944 97.8742 91.96C98.0982 92.024 98.3382 92.04 98.5942 92.008C98.8662 91.96 99.0902 91.888 99.2662 91.792C99.5222 91.664 99.7462 91.528 99.9382 91.384C100.146 91.224 100.37 91.056 100.61 90.88C100.69 90.832 100.762 90.744 100.826 90.616C100.89 90.472 100.986 90.368 101.114 90.304C101.242 90.112 101.402 90.016 101.594 90.016C101.802 90 102.002 89.992 102.194 89.992C102.322 90.024 102.458 90.104 102.602 90.232C102.746 90.36 102.85 90.488 102.914 90.616C102.994 90.728 102.986 90.808 102.89 90.856C102.826 90.856 102.786 90.88 102.77 90.928C102.77 90.96 102.77 90.976 102.77 90.976C102.802 91.04 102.73 91.184 102.554 91.408C102.394 91.632 102.186 91.872 101.93 92.128C101.674 92.384 101.426 92.608 101.186 92.8C100.962 92.976 100.802 93.064 100.706 93.064C100.546 93.064 100.466 93.112 100.466 93.208C100.466 93.24 100.346 93.32 100.106 93.448C99.8822 93.576 99.6182 93.704 99.3142 93.832C99.0262 93.96 98.7702 94.048 98.5462 94.096ZM106.088 93.976C105.704 93.976 105.368 93.776 105.08 93.376C104.808 92.96 104.64 92.464 104.576 91.888C104.592 91.76 104.608 91.576 104.624 91.336C104.656 91.096 104.688 90.848 104.72 90.592C104.784 90.288 104.872 89.896 104.984 89.416C105.096 88.936 105.216 88.456 105.344 87.976C105.472 87.48 105.584 87.056 105.68 86.704C105.776 86.336 105.832 86.12 105.848 86.056C105.944 85.832 106.16 85.776 106.496 85.888C106.832 86 107.12 86.24 107.36 86.608C107.456 86.736 107.512 86.888 107.528 87.064C107.56 87.24 107.536 87.496 107.456 87.832C107.392 88.168 107.264 88.664 107.072 89.32C106.896 89.96 106.76 90.48 106.664 90.88C106.584 91.264 106.552 91.672 106.568 92.104C106.504 92.84 106.44 93.344 106.376 93.616C106.312 93.872 106.216 93.992 106.088 93.976ZM108.296 84.016C108.232 84.064 108.168 84.088 108.104 84.088C108.056 84.072 107.968 84.024 107.84 83.944C107.728 83.928 107.584 83.856 107.408 83.728C107.248 83.584 107.104 83.44 106.976 83.296C106.864 83.152 106.808 83.064 106.808 83.032C106.792 82.872 106.8 82.616 106.832 82.264C106.88 81.912 106.968 81.584 107.096 81.28C107.24 80.96 107.432 80.792 107.672 80.776C107.736 80.776 107.872 80.808 108.08 80.872C108.304 80.936 108.536 81.016 108.776 81.112C108.904 81.352 109.024 81.664 109.136 82.048C109.248 82.432 109.256 82.808 109.16 83.176C109.08 83.528 108.792 83.808 108.296 84.016ZM110.511 93.568C110.319 93.616 110.103 93.56 109.863 93.4C109.623 93.24 109.407 93.04 109.215 92.8C109.023 92.56 108.903 92.344 108.855 92.152C108.791 91.816 108.807 91.408 108.903 90.928C109.015 90.432 109.199 89.912 109.455 89.368C109.711 88.808 110.031 88.264 110.415 87.736C110.799 87.192 111.231 86.704 111.711 86.272C112.191 85.84 112.711 85.504 113.271 85.264C113.511 85.136 113.679 85.056 113.775 85.024C113.871 84.976 113.967 84.976 114.063 85.024C114.159 85.056 114.327 85.136 114.567 85.264C114.791 85.328 115.015 85.408 115.239 85.504C115.479 85.584 115.687 85.744 115.863 85.984C115.991 86.224 116.087 86.464 116.151 86.704C116.215 86.944 116.271 87.216 116.319 87.52C116.447 87.92 116.495 88.184 116.463 88.312C116.431 88.424 116.383 88.512 116.319 88.576C116.191 88.736 116.159 88.816 116.223 88.816C116.223 88.816 116.215 88.848 116.199 88.912C116.199 88.96 116.167 89.04 116.103 89.152C115.991 89.504 115.903 89.84 115.839 90.16C115.791 90.464 115.799 90.736 115.863 90.976C115.991 91.328 116.159 91.536 116.367 91.6C116.591 91.664 116.879 91.52 117.231 91.168C117.407 91.04 117.607 90.96 117.831 90.928C118.055 90.88 118.167 90.92 118.167 91.048C118.167 91.048 118.191 91.072 118.239 91.12C118.287 91.152 118.343 91.168 118.407 91.168C118.487 91.168 118.519 91.248 118.503 91.408C118.487 91.552 118.455 91.72 118.407 91.912C118.359 92.104 118.295 92.264 118.215 92.392C117.975 92.632 117.855 92.792 117.855 92.872C117.855 92.872 117.823 92.904 117.759 92.968C117.711 93.016 117.623 93.096 117.495 93.208C117.207 93.384 116.839 93.472 116.391 93.472C115.959 93.472 115.623 93.384 115.383 93.208C115.143 93.032 114.903 92.816 114.663 92.56C114.439 92.304 114.295 92.064 114.231 91.84L114.111 91.6L113.415 92.056C113.239 92.232 113.111 92.368 113.031 92.464C112.951 92.544 112.879 92.616 112.815 92.68C112.767 92.744 112.711 92.8 112.647 92.848C112.599 92.896 112.543 92.92 112.479 92.92C112.415 92.92 112.359 92.92 112.311 92.92C112.263 92.92 112.239 92.92 112.239 92.92C112.239 92.984 112.127 93.072 111.903 93.184C111.679 93.28 111.431 93.368 111.159 93.448C110.887 93.528 110.671 93.568 110.511 93.568ZM111.015 91.552C111.111 91.552 111.255 91.496 111.447 91.384C111.655 91.256 111.879 91.104 112.119 90.928C112.359 90.752 112.575 90.576 112.767 90.4C112.975 90.224 113.127 90.08 113.223 89.968C113.287 89.904 113.359 89.8 113.439 89.656C113.535 89.512 113.639 89.384 113.751 89.272C114.119 88.856 114.351 88.528 114.447 88.288C114.543 88.032 114.503 87.76 114.327 87.472C114.263 87.296 114.183 87.2 114.087 87.184C113.991 87.168 113.791 87.224 113.487 87.352C113.295 87.464 113.087 87.648 112.863 87.904C112.639 88.16 112.407 88.448 112.167 88.768C111.943 89.088 111.735 89.416 111.543 89.752C111.351 90.088 111.191 90.392 111.063 90.664C110.951 90.936 110.895 91.152 110.895 91.312C110.895 91.376 110.911 91.432 110.943 91.48C110.991 91.528 111.015 91.552 111.015 91.552ZM119.774 93.424C119.614 93.328 119.438 93.192 119.246 93.016C119.054 92.824 118.958 92.64 118.958 92.464C118.958 92.224 118.99 91.928 119.054 91.576C119.118 91.208 119.182 90.896 119.246 90.64C119.278 90.352 119.318 90.064 119.366 89.776C119.43 89.472 119.542 89.192 119.702 88.936C119.878 88.328 120.062 87.728 120.254 87.136C120.446 86.528 120.614 85.904 120.758 85.264C120.966 84.672 121.15 84.152 121.31 83.704C121.486 83.24 121.702 82.656 121.958 81.952C122.102 81.552 122.222 81.128 122.318 80.68C122.43 80.216 122.598 79.8 122.822 79.432C122.918 79.288 122.99 79.168 123.038 79.072C123.102 78.96 123.166 78.856 123.23 78.76C123.246 78.696 123.326 78.64 123.47 78.592C123.63 78.544 123.79 78.52 123.95 78.52C124.126 78.504 124.246 78.536 124.31 78.616C124.358 78.6 124.438 78.664 124.55 78.808C124.662 78.936 124.766 79.088 124.862 79.264C124.974 79.424 125.022 79.552 125.006 79.648C125.006 79.712 124.99 79.8 124.958 79.912C124.942 80.024 124.902 80.128 124.838 80.224C124.774 80.288 124.71 80.384 124.646 80.512C124.598 80.624 124.518 80.784 124.406 80.992C124.342 81.2 124.286 81.416 124.238 81.64C124.19 81.848 124.126 82.04 124.046 82.216C123.982 82.408 123.902 82.592 123.806 82.768C123.726 82.944 123.67 83.088 123.638 83.2C123.526 83.568 123.39 83.928 123.23 84.28C123.086 84.632 122.958 85.008 122.846 85.408C122.734 85.792 122.622 86.192 122.51 86.608C122.398 87.008 122.238 87.392 122.03 87.76C121.918 87.936 121.838 88.16 121.79 88.432C121.742 88.704 121.694 88.976 121.646 89.248C121.55 89.536 121.462 89.808 121.382 90.064C121.318 90.304 121.286 90.456 121.286 90.52C121.19 90.872 121.118 91.224 121.07 91.576C121.038 91.912 120.958 92.208 120.83 92.464C120.814 92.624 120.758 92.8 120.662 92.992C120.566 93.184 120.438 93.328 120.278 93.424C120.134 93.52 119.966 93.52 119.774 93.424Z" fill="black"/>
<rect x="36" y="41" width="30" height="30" fill="black"/>
<rect x="57" y="20" width="30" height="30" fill="black"/>
<rect x="36.1066" y="41.1066" width="29.8492" height="42.2757" transform="rotate(-45 36.1066 41.1066)" fill="black"/>
<path d="M61.932 36.176C61.8573 37.016 61.8013 37.828 61.764 38.612C61.7453 39.396 61.736 40.0027 61.736 40.432C61.736 40.8427 61.7453 41.2347 61.764 41.608C61.7827 41.9813 61.8013 42.2987 61.82 42.56H61.176C60.9333 41.104 60.5973 39.9653 60.168 39.144C59.7387 38.304 59.2067 37.7067 58.572 37.352C57.956 36.9973 57.2187 36.82 56.36 36.82H55.436C54.8947 36.82 54.484 36.8667 54.204 36.96C53.924 37.0533 53.7373 37.24 53.644 37.52C53.5507 37.8 53.504 38.2293 53.504 38.808V52.864C53.504 53.592 53.5787 54.1333 53.728 54.488C53.8773 54.8427 54.1667 55.076 54.596 55.188C55.0253 55.3 55.66 55.3653 56.5 55.384V56C55.9213 55.9813 55.1747 55.9627 54.26 55.944C53.3453 55.9253 52.384 55.916 51.376 55.916C50.5733 55.916 49.7893 55.9253 49.024 55.944C48.2587 55.9627 47.568 55.9813 46.952 56V55.44C47.5493 55.4027 47.9973 55.328 48.296 55.216C48.5947 55.104 48.7907 54.88 48.884 54.544C48.996 54.208 49.052 53.704 49.052 53.032V39.144C49.052 38.4533 48.996 37.9493 48.884 37.632C48.7907 37.296 48.5853 37.072 48.268 36.96C47.9693 36.8293 47.5307 36.7547 46.952 36.736V36.176C47.7173 36.1947 48.5293 36.2133 49.388 36.232C50.2467 36.232 51.096 36.2413 51.936 36.26C52.776 36.26 53.56 36.26 54.288 36.26C55.016 36.26 55.6133 36.26 56.08 36.26C56.9387 36.26 57.9093 36.26 58.992 36.26C60.0933 36.2413 61.0733 36.2133 61.932 36.176ZM57.76 45.864C57.76 45.864 57.76 45.9573 57.76 46.144C57.76 46.3307 57.76 46.424 57.76 46.424H52.664C52.664 46.424 52.664 46.3307 52.664 46.144C52.664 45.9573 52.664 45.864 52.664 45.864H57.76ZM58.46 42.168C58.3853 43.232 58.348 44.044 58.348 44.604C58.3667 45.164 58.376 45.6773 58.376 46.144C58.376 46.6107 58.3853 47.124 58.404 47.684C58.4227 48.244 58.4693 49.056 58.544 50.12H57.9C57.788 49.4667 57.6107 48.86 57.368 48.3C57.1253 47.74 56.7707 47.292 56.304 46.956C55.8373 46.6013 55.2307 46.424 54.484 46.424V45.864C55.044 45.864 55.5107 45.752 55.884 45.528C56.276 45.2853 56.6027 44.9773 56.864 44.604C57.1253 44.212 57.3307 43.8013 57.48 43.372C57.6293 42.9427 57.7413 42.5413 57.816 42.168H58.46ZM70.5223 35.812C71.6236 35.812 72.473 35.9333 73.0703 36.176C73.6676 36.4 74.181 36.6427 74.6103 36.904C74.8343 37.0347 75.0116 37.1373 75.1423 37.212C75.2916 37.268 75.4316 37.296 75.5623 37.296C75.749 37.296 75.8796 37.1933 75.9543 36.988C76.0476 36.7827 76.1223 36.4747 76.1783 36.064H76.8223C76.8036 36.4187 76.7756 36.848 76.7383 37.352C76.7196 37.8373 76.701 38.4813 76.6823 39.284C76.6823 40.0867 76.6823 41.1413 76.6823 42.448H76.0383C75.9636 41.4773 75.7396 40.5347 75.3663 39.62C74.993 38.7053 74.461 37.9587 73.7703 37.38C73.0983 36.7827 72.2676 36.484 71.2783 36.484C70.3823 36.484 69.645 36.736 69.0663 37.24C68.4876 37.744 68.1983 38.444 68.1983 39.34C68.1983 40.0867 68.385 40.7307 68.7583 41.272C69.1316 41.7947 69.673 42.308 70.3823 42.812C71.1103 43.316 71.9876 43.9227 73.0143 44.632C73.9103 45.2107 74.713 45.7893 75.4223 46.368C76.1316 46.9467 76.701 47.6 77.1303 48.328C77.5596 49.056 77.7743 49.924 77.7743 50.932C77.7743 52.164 77.4476 53.1813 76.7943 53.984C76.1596 54.7867 75.3196 55.3933 74.2743 55.804C73.229 56.196 72.081 56.392 70.8303 56.392C69.673 56.392 68.749 56.28 68.0583 56.056C67.3676 55.832 66.789 55.5987 66.3223 55.356C65.9116 55.0947 65.5943 54.964 65.3703 54.964C65.1836 54.964 65.0436 55.0667 64.9503 55.272C64.8756 55.4773 64.8103 55.7853 64.7543 56.196H64.1103C64.1476 55.748 64.1663 55.2253 64.1663 54.628C64.185 54.0307 64.1943 53.256 64.1943 52.304C64.213 51.3333 64.2223 50.1107 64.2223 48.636H64.8663C64.941 49.868 65.1463 51.0253 65.4823 52.108C65.837 53.172 66.369 54.0307 67.0783 54.684C67.8063 55.3373 68.7676 55.664 69.9623 55.664C70.6156 55.664 71.1943 55.552 71.6983 55.328C72.221 55.0853 72.641 54.7307 72.9583 54.264C73.2756 53.7973 73.4343 53.2187 73.4343 52.528C73.4343 51.744 73.2476 51.0627 72.8743 50.484C72.5196 49.9053 72.025 49.364 71.3903 48.86C70.7743 48.356 70.0556 47.8427 69.2343 47.32C68.357 46.7413 67.5356 46.1627 66.7703 45.584C66.005 45.0053 65.389 44.3427 64.9223 43.596C64.4743 42.8493 64.2503 41.9627 64.2503 40.936C64.2503 39.76 64.5396 38.7987 65.1183 38.052C65.7156 37.2867 66.4903 36.7267 67.4423 36.372C68.413 35.9987 69.4396 35.812 70.5223 35.812Z" fill="white"/>
</svg>
